<?xml version="1.0" standalone="no"?>
<!DOCTYPE svg PUBLIC "-//W3C//DTD SVG 20010904//EN"
 "http://www.w3.org/TR/2001/REC-SVG-20010904/DTD/svg10.dtd">
<svg version="1.0" xmlns="http://www.w3.org/2000/svg"
 width="840.000000pt" height="859.000000pt" viewBox="0 0 840.000000 859.000000"
 preserveAspectRatio="xMidYMid meet">
<metadata>
Created by potrace 1.16, written by Peter Selinger 2001-2019
</metadata>
<g transform="translate(0.000000,859.000000) scale(0.100000,-0.100000)"
fill="#000000" stroke="none">
<path d="M7238 8460 c-71 -13 -167 -47 -223 -79 -77 -44 -218 -172 -618 -559
-202 -196 -378 -363 -391 -371 -27 -17 -22 -18 -423 138 -288 112 -572 215
-662 240 -66 18 -70 18 -98 1 -16 -9 -42 -32 -58 -51 -37 -44 -119 -217 -189
-398 -31 -80 -59 -148 -63 -152 -5 -4 -160 -5 -345 -2 l-337 6 -97 214 c-145
321 -189 383 -270 383 -48 0 -269 -84 -704 -268 -505 -213 -630 -289 -630
-383 0 -48 56 -200 173 -471 l55 -128 -217 -212 c-120 -117 -233 -221 -252
-232 l-35 -18 -114 45 c-483 191 -435 179 -517 130 -80 -47 -96 -77 -289 -555
-125 -310 -244 -622 -271 -711 -37 -126 30 -179 425 -336 l182 -73 -2 -345 -3
-344 -227 -98 c-253 -110 -283 -126 -327 -177 -61 -69 -41 -159 112 -521 148
-346 247 -591 247 -606 0 -17 -201 -235 -374 -407 l-116 -115 -225 -675 c-249
-750 -317 -973 -319 -1042 -1 -58 38 -112 108 -147 l47 -24 87 23 c48 12 426
135 841 272 l755 251 264 256 c145 141 269 257 275 259 7 1 57 -16 112 -39
446 -183 913 -364 983 -382 37 -9 88 11 121 49 43 48 104 174 190 392 l73 182
341 -2 340 -3 91 -205 c112 -250 141 -304 187 -351 47 -47 90 -54 174 -28 206
63 1052 426 1175 504 114 72 100 140 -129 664 l-28 65 166 166 c91 91 195 200
230 243 35 42 65 77 67 77 2 0 104 -40 226 -89 393 -157 455 -157 532 -3 137
274 454 1089 463 1192 10 119 -64 172 -446 321 l-164 63 6 246 c4 135 7 288 7
341 l0 95 153 69 c247 111 359 171 402 215 35 36 40 46 40 88 -1 61 -71 242
-301 770 l-115 263 398 406 c437 444 500 513 573 621 103 152 126 356 64 568
-47 164 -78 209 -273 404 -251 251 -362 329 -515 365 -76 19 -255 27 -318 15z
m282 -401 c74 -39 266 -219 361 -337 163 -203 165 -321 9 -515 -32 -40 -102
-118 -156 -175 l-99 -103 -398 398 -398 399 158 155 c88 86 176 163 198 174
118 56 225 57 325 4z m-813 -724 c64 -63 103 -109 103 -122 0 -37 -279 -321
-2932 -2987 l-737 -741 -143 143 -143 142 1225 1223 c674 673 1508 1503 1853
1845 587 582 629 621 650 610 12 -6 68 -57 124 -113z m-1472 -19 c313 -125
435 -177 435 -186 0 -18 -213 -243 -586 -619 l-390 -394 -140 23 c-585 96
-1108 -41 -1539 -402 -448 -375 -675 -864 -675 -1454 0 -244 40 -448 131 -669
145 -353 378 -641 689 -849 114 -77 371 -204 495 -245 530 -175 1136 -88 1602
231 279 191 453 399 622 742 120 244 150 346 172 601 14 166 6 453 -16 570 -8
44 -15 91 -15 105 0 20 104 129 499 524 l499 499 15 -34 c8 -19 53 -122 100
-229 87 -200 137 -330 137 -355 0 -17 -80 -58 -282 -145 -81 -34 -163 -76
-184 -93 -62 -52 -64 -60 -54 -367 6 -169 5 -366 -1 -510 -11 -261 -9 -272 48
-316 41 -31 175 -98 297 -148 84 -35 164 -74 195 -95 11 -7 -15 -80 -139 -388
-84 -208 -154 -379 -156 -381 -1 -2 -51 15 -110 38 -413 159 -443 166 -508
117 -20 -16 -89 -90 -153 -165 -144 -170 -265 -295 -410 -423 -63 -56 -124
-120 -139 -145 -24 -40 -26 -53 -22 -112 4 -54 20 -104 85 -262 44 -107 83
-205 86 -218 6 -27 11 -25 -283 -155 -261 -115 -455 -197 -466 -197 -5 0 -36
62 -68 138 -84 193 -153 328 -190 366 -50 54 -95 62 -239 46 -83 -10 -244 -14
-502 -15 -434 0 -412 4 -465 -88 -16 -28 -48 -94 -70 -144 -22 -51 -58 -135
-81 -187 -60 -141 -46 -133 -169 -88 -96 36 -523 208 -614 247 -36 15 -38 18
-31 52 3 19 35 109 71 199 76 191 99 284 85 345 -11 51 -20 60 -161 177 -142
118 -291 262 -420 408 -54 61 -122 131 -151 155 -79 66 -100 63 -388 -51 -195
-77 -236 -90 -247 -78 -28 28 -328 722 -321 741 3 7 93 52 201 101 250 113
310 151 338 213 22 50 22 48 -2 278 -6 56 -10 246 -8 435 3 372 2 384 -58 421
-52 32 -162 84 -286 135 -142 58 -188 81 -194 98 -5 12 203 550 270 699 26 57
27 58 59 52 17 -4 84 -28 147 -53 270 -105 370 -128 426 -99 36 19 83 68 201
212 110 133 219 240 373 367 155 129 171 147 177 200 7 61 -16 142 -94 337
-36 91 -67 182 -67 201 -1 34 1 36 89 79 167 82 613 261 649 261 18 0 44 -49
110 -204 72 -167 104 -228 143 -268 63 -64 79 -66 353 -37 89 9 164 9 330 0
118 -6 265 -11 327 -11 110 0 113 1 146 30 41 36 84 116 167 310 61 143 95
210 109 210 3 0 101 -38 216 -84z m275 -2491 l-1855 -1854 -127 124 c-71 69
-128 128 -128 132 0 5 833 843 1850 1863 l1849 1855 133 -133 133 -132 -1855
-1855z m-1190 955 c12 -7 -154 -178 -795 -820 -445 -445 -814 -810 -819 -810
-5 0 -6 75 -3 178 6 188 25 297 81 467 149 445 559 819 1045 951 52 14 124 29
160 34 96 11 314 11 331 0z m1365 -1603 c-10 -184 -54 -336 -156 -541 -83
-167 -159 -277 -264 -381 -119 -118 -248 -209 -420 -295 -211 -106 -375 -140
-669 -140 l-131 0 815 815 815 815 8 -87 c4 -49 5 -132 2 -186z m-3724 -1747
c30 -29 30 -30 13 -62 -9 -18 -171 -188 -360 -378 l-343 -345 -131 130 c-71
71 -130 133 -130 136 0 10 217 228 270 271 26 21 88 53 150 77 58 22 188 76
290 120 102 44 191 81 198 81 8 0 27 -13 43 -30z m388 -386 c28 -25 51 -52 51
-60 0 -21 -129 -334 -161 -391 -36 -63 -153 -194 -318 -358 l-121 -120 -125
125 c-69 69 -125 129 -125 135 0 12 424 435 604 604 66 61 125 111 132 111 6
0 35 -21 63 -46z m-1215 -803 c172 -173 296 -305 294 -313 -3 -7 -158 -64
-354 -130 -377 -126 -540 -175 -550 -165 -5 5 113 365 284 865 8 23 17 42 21
42 4 0 141 -135 305 -299z"/>
</g>
</svg>
