<?xml version="1.0" standalone="no"?>
<!DOCTYPE svg PUBLIC "-//W3C//DTD SVG 20010904//EN"
 "http://www.w3.org/TR/2001/REC-SVG-20010904/DTD/svg10.dtd">
<svg version="1.0" xmlns="http://www.w3.org/2000/svg"
 width="512.000000pt" height="512.000000pt" viewBox="0 0 512.000000 512.000000"
 preserveAspectRatio="xMidYMid meet">
<metadata>
Created by potrace 1.16, written by Peter Selinger 2001-2019
</metadata>
<g transform="translate(0.000000,512.000000) scale(0.100000,-0.100000)"
fill="#000000" stroke="none">
<path d="M4464 4891 c-103 -48 -148 -177 -204 -586 -54 -401 -105 -1008 -141
-1665 -14 -263 -14 -753 0 -895 l11 -109 -39 -41 c-90 -93 -131 -198 -131
-334 0 -50 5 -114 11 -143 15 -73 74 -188 151 -294 119 -162 147 -230 176
-428 13 -81 45 -129 113 -164 92 -48 200 -12 320 107 223 223 389 612 389 913
0 162 -34 250 -136 358 l-53 56 9 89 c33 316 15 1010 -46 1810 -54 718 -111
1108 -181 1237 -50 93 -159 132 -249 89z m90 -1266 c60 -851 80 -1470 58
-1765 l-7 -85 -76 -3 -77 -3 -7 158 c-12 240 5 703 45 1263 30 414 43 552 51
538 3 -7 9 -53 13 -103z m118 -2211 c55 -18 104 -68 113 -117 8 -43 -10 -172
-36 -261 -25 -82 -81 -207 -131 -288 l-35 -58 -28 72 c-26 65 -52 108 -197
320 -77 112 -85 220 -21 280 79 73 205 93 335 52z"/>
<path d="M1955 4670 c-522 -60 -998 -296 -1365 -676 -319 -330 -509 -716 -574
-1165 -20 -137 -21 -438 -1 -577 65 -456 268 -863 595 -1192 561 -565 1388
-762 2142 -510 137 46 314 127 428 197 197 122 410 310 467 413 132 238 45
550 -183 659 -37 18 -115 46 -173 63 -58 16 -114 34 -124 40 -48 25 -73 127
-46 181 7 12 91 103 188 202 196 200 245 259 319 389 107 185 155 370 155 596
0 153 -9 219 -49 358 -147 507 -698 931 -1312 1011 -120 16 -374 21 -467 11z
m478 -354 c374 -70 724 -293 889 -568 179 -300 167 -664 -33 -960 -24 -35
-129 -151 -234 -258 -250 -255 -279 -306 -279 -490 1 -114 20 -185 73 -267 70
-108 144 -154 342 -213 127 -37 141 -44 162 -80 21 -35 22 -111 2 -149 -26
-51 -216 -209 -347 -289 -412 -252 -884 -325 -1346 -207 -304 76 -577 233
-805 459 -280 279 -448 613 -508 1006 -16 109 -16 359 0 475 65 455 301 860
675 1155 267 210 581 350 881 390 50 6 97 13 105 15 39 10 344 -4 423 -19z"/>
<path d="M1530 4092 c-236 -62 -377 -306 -315 -547 68 -260 325 -398 591 -317
120 37 229 148 275 280 26 71 29 205 6 278 -37 125 -111 215 -220 269 -116 57
-218 68 -337 37z m190 -342 c81 -58 54 -187 -44 -205 -75 -15 -136 36 -136
112 0 38 5 50 34 79 28 28 42 34 76 34 26 0 53 -8 70 -20z"/>
<path d="M2475 3955 c-149 -47 -259 -155 -302 -298 -20 -65 -22 -197 -4 -262
55 -195 229 -325 436 -325 231 0 413 155 448 380 35 227 -99 441 -316 505 -61
18 -205 18 -262 0z m203 -343 c31 -20 42 -43 42 -87 0 -43 -23 -90 -51 -105
-30 -17 -91 -15 -127 4 -42 22 -60 79 -44 135 23 74 109 99 180 53z"/>
<path d="M863 3415 c-159 -35 -280 -152 -325 -314 -60 -216 40 -441 236 -532
163 -76 357 -53 493 58 156 128 202 379 104 571 -33 65 -122 149 -193 182
-107 50 -199 60 -315 35z m185 -353 c99 -93 -8 -249 -128 -187 -42 21 -60 53
-60 103 0 37 6 50 34 78 29 29 41 34 79 34 35 0 51 -6 75 -28z"/>
<path d="M1035 2470 c-179 -28 -317 -153 -365 -330 -19 -69 -14 -196 10 -265
89 -258 383 -376 637 -256 226 108 313 417 180 643 -60 103 -189 187 -317 207
-72 12 -73 12 -145 1z m158 -370 c48 -54 36 -145 -25 -176 -99 -51 -202 35
-166 140 27 79 134 100 191 36z"/>
</g>
</svg>
