<?xml version="1.0" standalone="no"?>
<!DOCTYPE svg PUBLIC "-//W3C//DTD SVG 20010904//EN"
 "http://www.w3.org/TR/2001/REC-SVG-20010904/DTD/svg10.dtd">
<svg version="1.0" xmlns="http://www.w3.org/2000/svg"
 width="1024.000000pt" height="1024.000000pt" viewBox="0 0 1024.000000 1024.000000"
 preserveAspectRatio="xMidYMid meet">
<metadata>
Created by potrace 1.16, written by Peter Selinger 2001-2019
</metadata>
<g transform="translate(0.000000,1024.000000) scale(0.100000,-0.100000)"
fill="#000000" stroke="none">
<path d="M4143 9649 c-224 -27 -485 -191 -608 -384 -21 -33 -134 -287 -251
-565 l-211 -505 -919 -5 c-700 -4 -924 -8 -940 -17 -35 -20 -73 -71 -84 -115
-7 -25 -10 -121 -8 -257 3 -246 10 -272 81 -319 l40 -27 304 -3 303 -3 0
-2707 c0 -1605 4 -2760 10 -2837 36 -486 303 -874 695 -1006 l70 -24 2493 -3
c2705 -2 2551 -5 2692 51 104 42 170 88 270 187 181 178 291 391 347 666 17
84 18 246 21 2881 l2 2792 303 3 304 3 41 27 c75 50 77 59 77 345 l0 251 -31
39 c-63 78 11 73 -1006 73 l-906 0 -45 108 c-25 59 -120 284 -211 501 -91 216
-180 418 -198 449 -41 70 -164 196 -243 249 -89 60 -197 112 -284 136 -75 21
-86 21 -1056 23 -539 1 -1012 -2 -1052 -7z m1928 -739 c19 -5 46 -22 60 -37
19 -21 215 -480 285 -665 6 -17 -59 -18 -1266 -18 -1014 0 -1271 3 -1267 13
117 287 274 648 290 666 48 52 18 50 972 51 557 0 903 -4 926 -10z m1637
-4217 c-3 -2580 -4 -2762 -20 -2815 -28 -93 -73 -182 -113 -227 l-37 -41
-2383 0 -2383 0 -31 26 c-17 14 -49 62 -71 107 -76 157 -70 -109 -70 2954 l0
2753 2555 0 2555 0 -2 -2757z"/>
<path d="M3430 6353 c-35 -13 -72 -47 -90 -83 -20 -39 -20 -65 -20 -1741 l0
-1702 24 -41 c13 -23 42 -51 64 -64 38 -21 50 -22 276 -22 177 0 245 3 269 14
42 17 83 66 97 114 8 26 10 546 8 1728 l-3 1690 -25 37 c-13 20 -41 45 -61 56
-34 20 -52 21 -280 20 -134 0 -251 -3 -259 -6z"/>
<path d="M4863 6335 c-27 -16 -49 -40 -62 -68 l-21 -43 0 -1685 c0 -1074 4
-1697 10 -1719 11 -41 61 -94 103 -109 17 -7 121 -11 261 -11 224 0 235 1 276
23 30 16 51 37 67 67 l23 43 0 1696 c0 1632 -1 1698 -19 1737 -10 23 -34 52
-52 65 -33 24 -38 24 -289 27 l-255 2 -42 -25z"/>
<path d="M6334 6341 c-41 -25 -72 -66 -84 -111 -7 -25 -9 -606 -8 -1721 3
-1582 4 -1686 20 -1716 10 -18 34 -45 55 -60 l36 -28 248 -3 c233 -3 250 -2
288 17 21 11 50 35 63 53 l23 33 0 1727 0 1727 -21 27 c-51 69 -49 69 -332 72
-238 2 -259 1 -288 -17z"/>
</g>
</svg>
